<svg xmlns="http://www.w3.org/2000/svg" viewBox="0 0 220 26.82"><defs><style>.cls-1{fill:#fff;}</style></defs><title>footer-logo-main</title><g id="Layer_2" data-name="Layer 2"><g id="文字"><polygon class="cls-1" points="53.13 22.43 53.13 4.39 49.5 4.39 49.5 11.76 43.19 11.76 43.19 4.39 39.55 4.39 39.55 22.43 43.19 22.43 43.19 14.88 49.5 14.88 49.5 22.43 53.13 22.43"/><polygon class="cls-1" points="68.96 22.43 68.96 19.29 60.33 19.29 60.33 14.9 67.68 14.9 67.68 11.76 60.33 11.76 60.33 7.53 68.96 7.53 68.96 4.39 56.69 4.39 56.69 22.43 68.96 22.43"/><path class="cls-1" d="M81.31,16.27H76.68L79,9.71Zm5.86,6.16-6.8-18H77.52l-6.78,18h3.79l1.13-3.19h6.62l1.09,3.19Z"/><polygon class="cls-1" points="100.79 4.39 97 4.39 93.26 16.14 89.52 4.39 85.75 4.39 91.89 22.43 94.62 22.43 100.79 4.39"/><polygon class="cls-1" points="115.57 22.43 115.57 19.29 106.94 19.29 106.94 14.9 114.29 14.9 114.29 11.76 106.94 11.76 106.94 7.53 115.57 7.53 115.57 4.39 103.3 4.39 103.3 22.43 115.57 22.43"/><polygon class="cls-1" points="133.13 22.43 133.13 4.39 129.49 4.39 129.49 15.44 122.11 4.39 118.87 4.39 118.87 22.43 122.5 22.43 122.5 11.36 129.88 22.43 133.13 22.43"/><path class="cls-1" d="M152.06,9.91a2.39,2.39,0,0,1-2.64,2.38H146V7.53h3.43a2.39,2.39,0,0,1,2.64,2.38m3.64,0c0-3-2.25-5.52-6-5.52h-7.3v18H146v-7.2h2.62l3.64,7.2h4.21l-4.16-7.78a4.88,4.88,0,0,0,3.4-4.74"/><path class="cls-1" d="M168.26,16.27h-4.63L166,9.71Zm5.86,6.16-6.8-18h-2.86l-6.77,18h3.79l1.13-3.19h6.62l1.09,3.19Z"/><polygon class="cls-1" points="187.66 4.39 183.87 4.39 180.13 16.14 176.39 4.39 172.62 4.39 178.77 22.43 181.49 22.43 187.66 4.39"/><polygon class="cls-1" points="202.45 22.43 202.45 19.29 193.81 19.29 193.81 14.9 201.16 14.9 201.16 11.76 193.81 11.76 193.81 7.53 202.45 7.53 202.45 4.39 190.18 4.39 190.18 22.43 202.45 22.43"/><polygon class="cls-1" points="216.36 4.39 216.36 15.44 208.99 4.39 205.74 4.39 205.74 22.43 209.38 22.43 209.38 11.36 216.76 22.43 220 22.43 220 4.39 216.36 4.39"/><path class="cls-1" d="M26,7.12A7.13,7.13,0,0,0,18.85,0H16.34V26.82H26L17.47,14.25h1.38A7.13,7.13,0,0,0,26,7.12"/><rect class="cls-1" x="8.17" width="6.49" height="12.57"/><rect class="cls-1" x="8.17" y="14.25" width="6.49" height="12.57"/><rect class="cls-1" width="6.49" height="26.81"/></g></g></svg>